<?xml version="1.0" encoding="UTF-8" standalone="no"?>
<svg
   viewBox="0 0 24 24"
   stroke-width="1.5"
   fill="none"
   color="#000000"
   version="1.1"
   id="svg2"
   width="24"
   height="24"
   xmlns="http://www.w3.org/2000/svg"
   xmlns:svg="http://www.w3.org/2000/svg"
   xmlns:bx="https://boxy-svg.com">
  <path
     d="M 4,21.4 V 2.6 C 4,2.26863 4.26863,2 4.6,2 h 11.6515 c 0.1591,0 0.3117,0.06321 0.4242,0.17574 l 3.1486,3.14852 C 19.9368,5.43679 20,5.5894 20,5.74853 V 21.4 C 20,21.7314 19.7314,22 19.4,22 H 4.6 C 4.26863,22 4,21.7314 4,21.4 Z"
     stroke="#000000"
     stroke-width="1.5"
     stroke-linecap="round"
     stroke-linejoin="round"
     id="path1" />
  <path
     d="m 9.2157159,15.02148 q -0.6607452,0 -1.2219805,-0.191406 Q 7.4364805,14.638669 7.034461,14.259763 6.6324414,13.880857 6.4095394,13.314451 6.1906179,12.748046 6.1906179,12.00586 q 0,-0.691405 0.2109607,-1.253905 0.2109608,-0.5625 0.6129804,-0.9648435 0.386098,-0.386718 0.9552941,-0.597655 0.5731765,-0.210937 1.2498431,-0.210937 0.3741569,0 0.6726859,0.04297 0.3025099,0.03906 0.5572559,0.105468 0.266686,0.07422 0.481627,0.167969 0.218922,0.08984 0.382118,0.167968 v 1.4101565 h -0.175138 q -0.111451,-0.09375 -0.282608,-0.222657 -0.167176,-0.128905 -0.382118,-0.253906 -0.218921,-0.125 -0.4736659,-0.210937 -0.2547451,-0.08594 -0.5453138,-0.08594 -0.3224117,0 -0.6129803,0.101562 -0.2905686,0.09766 -0.537353,0.328125 -0.2348431,0.222656 -0.3821177,0.589843 -0.143294,0.367187 -0.143294,0.890624 0,0.546874 0.1552353,0.914061 0.1592157,0.367187 0.3980392,0.578125 0.2428039,0.214843 0.5413333,0.308593 0.2985294,0.08984 0.589098,0.08984 0.2786275,0 0.5492949,-0.08203 0.274647,-0.08204 0.505509,-0.222656 0.195039,-0.113281 0.362216,-0.242187 0.167176,-0.128907 0.274647,-0.222656 h 0.159216 v 1.390623 q -0.222902,0.09766 -0.425903,0.183594 -0.202999,0.08594 -0.425901,0.148437 -0.290569,0.08204 -0.5453139,0.125 -0.2547454,0.04297 -0.7005492,0.04297 z M 17.809382,9.0918005 15.648029,14.908199 H 13.936461 L 11.775108,9.0918005 h 1.604098 l 1.432941,4.0859325 1.432942,-4.0859325 z"
     id="text1"
     style="font-weight:700;font-size:8.07556px;font-family:'Noto Sans';white-space:pre;fill:#000000;stroke-width:1.00063"
     aria-label="CV" />
  <path
     d="M 16,2 V 5.4 C 16,5.73137 16.2686,6 16.6,6 H 20"
     stroke="#000000"
     stroke-width="1.5"
     stroke-linecap="round"
     stroke-linejoin="round"
     id="path2" />
</svg>
